<?xml version="1.0" encoding="UTF-8"?>
<svg version="1.1" xmlns="http://www.w3.org/2000/svg" width="2245" height="1587">
<path d="M0 0 C740.85 0 1481.7 0 2245 0 C2245 523.71 2245 1047.42 2245 1587 C1504.15 1587 763.3 1587 0 1587 C0 1063.29 0 539.58 0 0 Z " fill="#030202" transform="translate(0,0)"/>
<path d="M0 0 C7.177622 1.42863269 13.89952196 3.56489088 20.7890625 6.015625 C22.50922073 6.62032623 22.50922073 6.62032623 24.26412964 7.23724365 C26.74845737 8.11128868 29.23205593 8.98713712 31.71459961 9.86621094 C35.70178381 11.27799816 39.69148764 12.68256651 43.68164062 14.0859375 C47.87591644 15.5614193 52.07005408 17.03728557 56.2633667 18.51550293 C69.6964725 23.25056446 83.14304607 27.9466686 96.59188843 32.6368103 C102.49215843 34.69462896 108.3914693 36.75519451 114.29084587 38.81557274 C117.56936425 39.96060553 120.84791488 41.10554593 124.12646484 42.25048828 C124.77514117 42.47702559 125.4238175 42.70356291 126.09215069 42.93696499 C130.04422205 44.31711719 133.99639755 45.69697076 137.94864082 47.07663059 C146.40395073 50.0282799 154.85864181 52.98169527 163.3125 55.9375 C164.25811798 56.2681011 164.25811798 56.2681011 165.22283936 56.60538101 C182.16993599 62.53098892 199.09443254 68.51483633 215.99130249 74.58206177 C231.60347324 80.18444208 247.27286624 85.61533892 262.95346069 91.02282715 C278.60023422 96.41970087 294.21867995 101.88955218 309.8125 107.4375 C327.00894387 113.55485857 344.24191122 119.55884148 361.5 125.5 C379.61106675 131.73523727 397.69735696 138.0349378 415.75 144.4375 C417.26194946 144.97358887 417.26194946 144.97358887 418.80444336 145.52050781 C424.14798433 147.41616214 429.48973973 149.31671481 434.82885742 151.22479248 C436.79199681 151.92573236 438.75628328 152.62345752 440.72070312 153.32080078 C441.72552734 153.68028809 442.73035156 154.03977539 443.765625 154.41015625 C444.58321289 154.70156494 445.40080078 154.99297363 446.24316406 155.29321289 C448 156 448 156 449 157 C449.09919289 159.66451036 449.13278605 162.29786742 449.11499023 164.96240234 C449.11180251 165.77276632 449.10861479 166.5831303 449.10533047 167.41805077 C449.04214535 175.82747315 448.6384114 184.20716937 448.16015625 192.6015625 C448.06995715 194.24409926 447.97996109 195.88664719 447.89015198 197.52920532 C446.95346837 214.46752737 445.87754221 231.39745056 444.76782227 248.32519531 C444.48665469 252.61430353 444.20991003 256.90368528 443.93426418 261.19315147 C443.71722369 264.56309241 443.49791083 267.93288251 443.27791023 271.30263138 C443.17475132 272.88689232 443.07228814 274.47119875 442.97057915 276.05555344 C442.82963058 278.24601613 442.68559507 280.43625538 442.54077148 282.62646484 C442.46020004 283.8619809 442.3796286 285.09749695 442.2966156 286.37045288 C441.97797091 290.26955968 441.49546294 294.11969742 441 298 C440.83020063 300.5491504 440.68802012 303.10025745 440.5703125 305.65234375 C440.49825008 307.14519211 440.42597449 308.6380302 440.35351562 310.13085938 C440.31653564 310.91227295 440.27955566 311.69368652 440.24145508 312.4987793 C439.45715611 328.92301921 438.39262112 345.31585479 437.14111328 361.71069336 C436.04443913 376.09407224 435.08392249 390.48549917 434.1392746 404.87958527 C433.99780008 407.03349306 433.85592706 409.18737427 433.71392822 411.34124756 C433.04670318 421.46266768 432.38366672 431.58435666 431.7241745 441.70628357 C431.61530951 443.37703316 431.50638606 445.04777893 431.39740753 446.71852112 C429.98388089 468.39182076 428.61432245 490.06592956 427.375 511.75 C426.28153241 530.87902697 424.95622661 549.98281289 423.51199341 569.08825684 C422.82697645 578.20673388 422.22914383 587.33077826 421.64624023 596.45629883 C421.20260765 603.31584884 420.66136202 610.15790928 420 617 C413.8478172 619.42501546 407.6658439 621.28806857 401.28125 622.99804688 C400.22466973 623.28440726 399.16808947 623.57076765 398.07949162 623.86580563 C394.55395856 624.82039245 391.02697586 625.76950915 387.5 626.71875 C384.97112428 627.40253867 382.44235387 628.08671693 379.91368103 628.77125549 C374.47145549 630.24406546 369.02854838 631.71433179 363.58517456 633.18289185 C350.42269415 636.73419317 337.26358676 640.29796587 324.10432243 643.86116219 C321.06444857 644.68427655 318.02452501 645.50720697 314.98456001 646.32998466 C293.095002 652.25468521 271.21302665 658.20653215 249.33984375 664.19140625 C248.66295809 664.37661134 247.98607242 664.56181644 247.28867507 664.75263381 C239.17962214 666.97151266 231.07093955 669.1917431 222.96239978 671.41249639 C210.31660358 674.87587238 197.67024011 678.33717585 185.0234375 681.796875 C184.38063599 681.97272637 183.73783448 682.14857773 183.07555413 682.32975793 C148.197549 691.87088801 113.2944123 701.31873228 78.38804054 710.75544167 C57.75637974 716.33310843 37.13045166 721.93182895 16.50577927 727.53527451 C13.09826114 728.46102305 9.69069733 729.3866034 6.2831316 730.3121767 C3.88189756 730.96447247 1.480719 731.61697218 -0.92045593 732.26948547 C-3.92223807 733.08514373 -6.9242965 733.89977273 -9.92658997 734.71354675 C-16.26663276 736.43309348 -22.60330369 738.1626715 -28.92871094 739.93554688 C-29.95801727 740.22234314 -30.98732361 740.5091394 -32.04782104 740.80462646 C-33.88931298 741.31885499 -35.72941722 741.83809653 -37.56765747 742.36383057 C-45.64436278 744.61336301 -45.64436278 744.61336301 -49 744 C-50.6940918 742.40209961 -50.6940918 742.40209961 -52.19921875 740.15234375 C-52.76962891 739.31767578 -53.34003906 738.48300781 -53.92773438 737.62304688 C-54.50845703 736.73681641 -55.08917969 735.85058594 -55.6875 734.9375 C-56.52958008 733.69516602 -56.52958008 733.69516602 -57.38867188 732.42773438 C-59.27799481 729.63069205 -61.13960361 726.81636153 -63 724 C-64.60966907 721.57658472 -66.22251259 719.15529101 -67.8359375 716.734375 C-68.25949524 716.09863556 -68.68305298 715.46289612 -69.1194458 714.80789185 C-73.69100344 707.95271107 -78.31160105 701.13107636 -82.9375 694.3125 C-83.85274577 692.96251352 -84.76794661 691.61249657 -85.68310547 690.26245117 C-88.45457993 686.1744085 -91.22720852 682.08714944 -94 678 C-94.83643282 676.76693186 -95.67285882 675.53385909 -96.50927734 674.30078125 C-100.83483549 667.92410696 -105.16153631 661.54820882 -109.4889679 655.17280579 C-113.43003879 649.36659425 -117.37029299 643.55982866 -121.31048584 637.75302124 C-123.29029111 634.83532525 -125.27014814 631.91766438 -127.25 629 C-128.04166692 627.8333335 -128.83333358 626.66666684 -129.625 625.5 C-130.016875 624.9225 -130.40875 624.345 -130.8125 623.75 C-132 622 -133.1875 620.25 -134.375 618.5 C-134.76686493 617.92251511 -135.15872986 617.34503021 -135.56246948 616.75004578 C-136.35423887 615.5832272 -137.14600726 614.41640794 -137.93777466 613.24958801 C-139.91536155 610.33524008 -141.89296566 607.42090383 -143.87060547 604.5065918 C-147.45197868 599.22893149 -151.03322157 593.95118297 -154.61383057 588.67300415 C-162.5700788 576.9447126 -170.52897787 565.21825884 -178.5 553.5 C-186.87397081 541.18936332 -195.2343336 528.86952324 -203.59277344 516.54833984 C-207.16617615 511.28087284 -210.74037324 506.01394488 -214.31451416 500.74697876 C-216.29304233 497.83134149 -218.27151852 494.91566895 -220.25 492 C-221.04166642 490.83333316 -221.83333308 489.6666665 -222.625 488.5 C-224.20833333 486.16666667 -225.79166667 483.83333333 -227.375 481.5 C-227.96279739 480.63377266 -227.96279739 480.63377266 -228.56246948 479.75004578 C-229.35423887 478.5832272 -230.14600726 477.41640794 -230.93777466 476.24958801 C-232.91536155 473.33524008 -234.89296566 470.42090383 -236.87060547 467.5065918 C-240.45196838 462.22894666 -244.03320025 456.95121284 -247.61380005 451.67304993 C-255.61222196 439.88258499 -263.61305921 428.09378526 -271.625 416.3125 C-272.31360107 415.29986084 -273.00220215 414.28722168 -273.71166992 413.24389648 C-276.92559178 408.51820611 -280.14048828 403.79318449 -283.35783386 399.06982422 C-291.29491995 387.41697978 -299.21886579 375.75773351 -307 364 C-302.88765821 354.82631447 -294.37156514 347.08778664 -287.79956055 339.54956055 C-284.63668139 335.91448598 -281.53222451 332.2456891 -278.5 328.5 C-274.42242873 323.46651459 -270.19494085 318.57666691 -265.94189453 313.69189453 C-261.0212235 308.03735121 -256.17218901 302.32527914 -251.34277344 296.59277344 C-249.06578561 293.89185188 -246.78254206 291.19622756 -244.5 288.5 C-243.58330416 287.41669135 -242.66663747 286.33335804 -241.75 285.25 C-217.91666667 257.08333333 -194.08333333 228.91666667 -170.25 200.75 C-169.79633057 200.21383057 -169.34266113 199.67766113 -168.87524414 199.12524414 C-167.95782203 198.04104762 -167.04034148 196.95690055 -166.12280273 195.87280273 C-163.84221456 193.17807689 -161.56262185 190.48252188 -159.28515625 187.78515625 C-154.50591674 182.12729174 -149.7055149 176.48917257 -144.875 170.875 C-141.38184894 166.81371255 -137.93551604 162.72481413 -134.5625 158.5625 C-130.41939009 153.45692535 -126.1176955 148.50199947 -121.79711914 143.54711914 C-118.63534162 139.91262149 -115.53149794 136.24479157 -112.5 132.5 C-108.38106834 127.41190794 -104.09852666 122.47996177 -99.796875 117.546875 C-96.63520769 113.91243501 -93.53142528 110.24470182 -90.5 106.5 C-86.42372051 101.4681092 -82.19716102 96.58021699 -77.94628906 91.69628906 C-71.05237722 83.77211368 -64.24234029 75.78237585 -57.625 67.625 C-53.45778876 62.50186933 -49.13687543 57.52405072 -44.79736328 52.54736328 C-41.63547557 48.91280797 -38.53157059 45.24488132 -35.5 41.5 C-31.38403149 36.41556831 -27.10537281 31.48641797 -22.80566406 26.55786133 C-19.55254742 22.81963917 -16.3673971 19.04064641 -13.25 15.1875 C-9.01590051 9.95575555 -4.54953273 4.9582378 0 0 Z " fill="#FC8111" transform="translate(570,392)"/>
<path d="M0 0 C95.55976676 0 95.55976676 0 116 19 C135.15528434 38.39176933 141.37313984 66.23414736 141.375 92.6875 C141.25948346 103.54834938 140.58408912 114.25574338 139 125 C138.82855469 126.26328125 138.65710937 127.5265625 138.48046875 128.828125 C135.04660939 149.65282046 124.29632356 171.36173762 106.9375 183.875 C74.74227724 204.99229665 39.04472378 196 0 196 C0 131.32 0 66.64 0 0 Z " fill="#FBCD1C" transform="translate(1028,659)"/>
<path d="M0 0 C16.84549179 11.91019076 26.48532942 27.99336339 31 48 C31.28488281 49.19753906 31.56976562 50.39507813 31.86328125 51.62890625 C39.84733342 86.70576106 37.72114169 128.33935577 19.9140625 160.03125 C16.78750262 164.88060818 13.09133271 168.95173395 9 173 C8.40960937 173.62390625 7.81921875 174.2478125 7.2109375 174.890625 C3.02933601 178.98012073 -1.71353725 181.65878856 -6.875 184.3125 C-7.84675171 184.81934326 -7.84675171 184.81934326 -8.83813477 185.33642578 C-18.41435886 190.0324016 -28.04887601 190.31989667 -38.5625 190.25 C-39.72974609 190.25773438 -40.89699219 190.26546875 -42.09960938 190.2734375 C-48.6730107 190.2586242 -54.67674252 189.82791354 -61 188 C-61.95648437 187.72800781 -62.91296875 187.45601562 -63.8984375 187.17578125 C-82.15044252 180.81348928 -94.32146277 167.98514046 -102.625 150.8125 C-110.59160694 132.31110361 -113.53389786 113.47535406 -113.33618164 93.43115234 C-113.31244578 90.86914723 -113.31567363 88.30818248 -113.32226562 85.74609375 C-113.30006142 71.71816367 -112.36764431 57.97015054 -108.375 44.4375 C-108.11775146 43.55545898 -107.86050293 42.67341797 -107.59545898 41.76464844 C-101.89920164 23.20929639 -90.87527333 7.16669285 -73.8203125 -2.6171875 C-51.24839846 -13.68430325 -21.35036787 -14.33288262 0 0 Z " fill="#FB8D13" transform="translate(1802,667)"/>
<path d="M0 0 C2.49446921 2.18501917 4.83378579 4.44685721 7.14453125 6.82421875 C8.07845703 7.72720703 8.07845703 7.72720703 9.03125 8.6484375 C18.69500273 18.659651 23.95564639 32.50629847 27.14453125 45.82421875 C27.30824219 46.49291992 27.47195313 47.16162109 27.640625 47.85058594 C35.25262717 81.01941357 33.35254833 125.30452363 15.14453125 154.82421875 C4.03394458 170.3417979 -10.36957039 180.22064542 -29.4140625 183.43359375 C-48.86546104 185.641471 -68.34367551 182.83950025 -84.15234375 170.3125 C-101.82627489 155.36430468 -110.68957071 131.07580794 -112.6394043 108.42382812 C-113.07328565 101.19541377 -113.12000268 93.96123471 -113.15063477 86.72143555 C-113.1620927 84.84766044 -113.18244498 82.97391634 -113.2121582 81.1003418 C-113.62816824 54.72902382 -108.59617606 25.82192472 -89.85546875 5.82421875 C-66.49255155 -16.57224684 -26.04247749 -19.84358408 0 0 Z " fill="#040302" transform="translate(604.85546875,674.17578125)"/>
<path d="M0 0 C105.4075 0 105.4075 0 120.484375 14.27734375 C123.70349238 17.93618593 126.40873707 21.87989194 129 26 C129.5878125 26.92039062 129.5878125 26.92039062 130.1875 27.859375 C138.11897565 41.86338669 138.9928972 59.63157574 134.97265625 74.87109375 C130.70771846 88.59083338 124.23629591 98.02927088 113 107 C112.01 107.495 112.01 107.495 111 108 C111.63169587 111.63655749 112.6204431 114.88058565 113.97436523 118.31152344 C114.38246933 119.3516156 114.79057343 120.39170776 115.21104431 121.46331787 C115.65573563 122.58401672 116.10042694 123.70471558 116.55859375 124.859375 C117.02177505 126.03598694 117.48495636 127.21259888 117.96217346 128.42486572 C119.19981499 131.56631304 120.44111742 134.70626372 121.68414307 137.84558105 C122.90928175 140.94262206 124.12910984 144.04175344 125.34960938 147.140625 C129.19046001 156.8827106 133.03576731 166.62255313 136.95361328 176.33398438 C137.41993668 177.49158264 137.88626007 178.64918091 138.36671448 179.84185791 C139.25221017 182.03692822 140.14069999 184.23079374 141.03257751 186.42327881 C141.424095 187.39380188 141.81561249 188.36432495 142.21899414 189.36425781 C142.56434708 190.21497864 142.90970001 191.06569946 143.26551819 191.94219971 C144 194 144 194 144 196 C128.16 196 112.32 196 96 196 C86.81790331 173.04475827 86.81790331 173.04475827 84.11328125 165.53515625 C83.80351852 164.68424911 83.4937558 163.83334198 83.17460632 162.95664978 C82.21757427 160.32634284 81.26473557 157.69454666 80.3125 155.0625 C79.0394258 151.55277888 77.76425485 148.04382418 76.48828125 144.53515625 C76.18737579 143.70585602 75.88647034 142.87655579 75.57644653 142.02212524 C73.4173655 136.08998525 71.16690052 130.20105433 68.83666992 124.33374023 C68 122 68 122 68 120 C60.41 120 52.82 120 45 120 C45 145.08 45 170.16 45 196 C30.15 196 15.3 196 0 196 C0 131.32 0 66.64 0 0 Z " fill="#060403" transform="translate(663,662)"/>
<path d="M0 0 C12.87 0 25.74 0 39 0 C45.47521958 11.76594777 51.84991389 23.561045 58 35.5 C62.23656044 43.72346849 66.54370074 51.89332794 71 60 C77.85426084 72.56614488 84.41104756 85.29273457 91 98 C91.33 65.66 91.66 33.32 92 0 C105.86 0 119.72 0 134 0 C134 66 134 132 134 200 C120.8 200 107.6 200 94 200 C87.33881053 187.91117467 80.80758815 175.77590221 74.5 163.5 C70.05976861 154.85938605 65.55570867 146.2636536 60.875 137.75 C54.41254479 125.92508196 48.21700868 113.95578592 42 102 C41.67 134.34 41.34 166.68 41 200 C27.47 200 13.94 200 0 200 C0 134 0 68 0 0 Z " fill="#FBCC1C" transform="translate(1865,657)"/>
<path d="M0 0 C14.19 0 28.38 0 43 0 C43.33 25.74 43.66 51.48 44 78 C49.28 69.75 54.56 61.5 60 53 C67.86864157 41.16556308 67.86864157 41.16556308 71.93359375 35.390625 C74.62783823 31.40920792 76.7438938 27.50632405 78.60137939 23.098526 C86.56479475 4.34656561 86.56479475 4.34656561 95 0 C110.73459555 -4.37776338 128.99680778 -1.76403259 145 0 C141.88045675 5.79418993 138.56639603 11.34717209 134.8515625 16.77734375 C134.36539963 17.4943042 133.87923676 18.21126465 133.37834167 18.94995117 C132.33654705 20.48544216 131.29312603 22.01983077 130.24819946 23.55319214 C128.59973186 25.97461622 126.95861168 28.40087926 125.3190918 30.82836914 C120.21111296 38.38273463 115.0768761 45.9158582 109.84484863 53.38499451 C107.67336242 56.48804072 105.5164874 59.60109806 103.36077881 62.71511841 C102.33230302 64.19138073 101.29623786 65.66238586 100.25250244 67.12789917 C98.80192428 69.16532998 97.37733857 71.218746 95.95703125 73.27734375 C95.52295456 73.87264893 95.08887787 74.4679541 94.64164734 75.08129883 C92.66880879 77.99348866 91.89918822 79.44954503 92.54321289 82.96606445 C93.26432251 84.46786255 93.26432251 84.46786255 94 86 C94.50611816 87.13727539 95.01223633 88.27455078 95.53369141 89.44628906 C96.13616367 90.72105383 96.74232949 91.99407745 97.3515625 93.265625 C97.84769547 94.31203156 97.84769547 94.31203156 98.35385132 95.37957764 C99.44114409 97.67120046 100.53312034 99.96055963 101.625 102.25 C102.39362046 103.86830379 103.16184336 105.48679647 103.9296875 107.10546875 C105.11496845 109.60392936 106.30052788 112.1022541 107.48736572 114.59997559 C111.67352108 123.40993663 115.82447498 132.23634555 119.9697876 141.06558228 C123.48181588 148.5455388 127.00443389 156.02000884 130.56420898 163.47738647 C132.15925489 166.81934361 133.75030705 170.16319605 135.34130859 173.50708008 C136.10905184 175.1174644 136.87888383 176.7268547 137.65087891 178.33520508 C138.72032906 180.56349853 139.78273948 182.79502233 140.84375 185.02734375 C141.32527527 186.02325783 141.32527527 186.02325783 141.81652832 187.03929138 C143.16554338 189.89322448 144 191.80009107 144 195 C128.16 195 112.32 195 96 195 C91.62230108 186.24460217 87.36433533 177.57076136 83.4375 168.625 C82.6935498 166.9390271 82.6935498 166.9390271 81.93457031 165.21899414 C80.86403788 162.79043471 79.79496603 160.36128729 78.72802734 157.93115234 C77.19202308 154.43384844 75.64818107 150.94004655 74.10316467 147.44671631 C72.8004186 144.49915617 71.50120463 141.55004869 70.20291138 138.6005249 C69.5689977 137.16159667 68.933972 135.72315781 68.29782104 134.28521729 C67.4085266 132.27372142 66.52397589 130.2602054 65.640625 128.24609375 C65.13047852 127.08779053 64.62033203 125.9294873 64.09472656 124.73608398 C63 122 63 122 63 120 C62.34 120 61.68 120 61 120 C60.73646729 120.5669458 60.47293457 121.1338916 60.20141602 121.71801758 C58.9108622 124.1693093 57.42657713 126.28638489 55.77734375 128.51171875 C55.15666016 129.35154297 54.53597656 130.19136719 53.89648438 131.05664062 C53.25001953 131.92482422 52.60355469 132.79300781 51.9375 133.6875 C51.28716797 134.56728516 50.63683594 135.44707031 49.96679688 136.35351562 C45.16269066 142.83730934 45.16269066 142.83730934 44 144 C43.87727151 145.59513893 43.82218957 147.19554932 43.79467773 148.79516602 C43.77473251 149.81614883 43.75478729 150.83713165 43.73423767 151.88905334 C43.70916893 153.55465553 43.70916893 153.55465553 43.68359375 155.25390625 C43.66281265 156.38448959 43.64203156 157.51507294 43.62062073 158.67991638 C43.55500203 162.30737985 43.49618323 165.93491833 43.4375 169.5625 C43.39432649 172.01498186 43.3507126 174.467456 43.30664062 176.91992188 C43.19847581 182.94653869 43.09949392 188.97320873 43 195 C28.81 195 14.62 195 0 195 C0 130.65 0 66.3 0 0 Z " fill="#030303" transform="translate(835,662)"/>
<path d="M0 0 C39.6 0 79.2 0 120 0 C120 14.19 120 28.38 120 43 C94.92 43 69.84 43 44 43 C44 53.23 44 63.46 44 74 C65.78 74 87.56 74 110 74 C110 88.52 110 103.04 110 118 C88.22 118 66.44 118 44 118 C44 129.88 44 141.76 44 154 C69.41 154 94.82 154 121 154 C121 167.86 121 181.72 121 196 C81.07 196 41.14 196 0 196 C0 131.32 0 66.64 0 0 Z " fill="#FB7610" transform="translate(1196,659)"/>
<path d="M0 0 C12.99919995 11.20362701 20.82203867 27.48522204 22.9375 44.4375 C23.37043523 51.88398601 23.25 59.35343928 23.25 66.8125 C8.4 66.8125 -6.45 66.8125 -21.75 66.8125 C-22.08 61.2025 -22.41 55.5925 -22.75 49.8125 C-24.59494831 41.60248002 -27.18591526 34.98057533 -33.5625 29.3125 C-39.98920812 26.14161317 -49.55228372 26.80555157 -56.35546875 28.4375 C-63.65979199 31.6022358 -68.03389825 39.04900831 -70.87304688 46.19848633 C-74.56456772 57.20213712 -74.06163191 69.10644429 -74.01074219 80.56054688 C-73.99999434 83.43901504 -74.01070533 86.31686288 -74.0234375 89.1953125 C-74.03563265 104.34545497 -73.84227221 122.045046 -62.75 133.8125 C-55.63517507 139.41353239 -48.63062928 140.79786802 -39.75 139.8125 C-33.35232449 138.07753715 -29.40374629 135.29311944 -25.75 129.8125 C-22.48912733 123.63400441 -22.03065694 117.77896955 -21.5625 110.875 C-21.294375 107.224375 -21.02625 103.57375 -20.75 99.8125 C-6.23 99.8125 8.29 99.8125 23.25 99.8125 C23.25 128.06992574 23.25 128.06992574 17.25 141.8125 C16.82847656 142.78960938 16.40695312 143.76671875 15.97265625 144.7734375 C8.74153181 160.35741205 -2.53831937 170.75884518 -18.25 177.55859375 C-37.01087323 184.27984409 -59.54275717 184.21713761 -77.86328125 176.08203125 C-96.30686159 167.15830761 -107.16714481 152.10684881 -114.0546875 133.23828125 C-119.78144533 116.65783354 -121.02343745 100.49065586 -121.0625 83.0625 C-121.06617584 82.27380524 -121.06985168 81.48511047 -121.07363892 80.67251587 C-121.14068913 53.07328646 -116.48225062 24.59352599 -96.3359375 4.33203125 C-95.48257812 3.50058594 -94.62921875 2.66914062 -93.75 1.8125 C-93.14414062 1.19761719 -92.53828125 0.58273437 -91.9140625 -0.05078125 C-68.41514433 -22.23146743 -24.01173673 -18.44522986 0 0 Z " fill="#050303" transform="translate(438.75,676.1875)"/>
<path d="M0 0 C12.90422026 10.43796967 21.88999543 28.04678958 23.8359375 44.44921875 C24.27744035 53.12593937 24.01599507 61.76144118 23.8359375 70.44921875 C9.9759375 70.44921875 -3.8840625 70.44921875 -18.1640625 70.44921875 C-18.4940625 65.16921875 -18.8240625 59.88921875 -19.1640625 54.44921875 C-21.66790227 44.60653827 -23.67945629 37.47775474 -32.1640625 31.44921875 C-37.3399047 28.86129765 -46.27081076 29.54369721 -51.72265625 31.25 C-58.84947028 35.29269568 -63.27656828 42.93231918 -65.45776367 50.65917969 C-68.38866691 62.23690601 -69.6543385 73.24850669 -69.55517578 85.15820312 C-69.5390674 87.44852187 -69.55514949 89.73707714 -69.57421875 92.02734375 C-69.59601299 107.61408303 -68.25400033 126.20903131 -57.98046875 138.72265625 C-53.00217833 143.45470865 -47.3698562 145.71802304 -40.5390625 146.01171875 C-34.13704942 145.68573223 -29.55520708 143.70752197 -24.9140625 139.32421875 C-18.20898469 128.30873378 -17.93973412 118.63563628 -17.1640625 105.44921875 C-3.6340625 105.44921875 9.8959375 105.44921875 23.8359375 105.44921875 C24.43709549 132.05045969 24.43709549 132.05045969 19.8359375 144.44921875 C19.41183594 145.63644531 18.98773437 146.82367187 18.55078125 148.046875 C12.46540449 163.62476147 2.44438346 175.33408011 -12.78125 182.421875 C-22.51754471 186.61965452 -30.93896962 187.63055281 -41.4765625 187.63671875 C-42.56646484 187.64896484 -43.65636719 187.66121094 -44.77929688 187.67382812 C-51.19140238 187.68539536 -56.99590513 187.22315389 -63.1640625 185.44921875 C-64.24171875 185.13984375 -65.319375 184.83046875 -66.4296875 184.51171875 C-83.25685193 178.52089581 -93.7875873 167.16928109 -101.9765625 151.44921875 C-111.4121636 131.53203768 -113.35149124 110.96979367 -113.34936523 89.20800781 C-113.35154612 86.71792344 -113.36974861 84.2282874 -113.38867188 81.73828125 C-113.48263625 55.63011801 -108.98576637 26.07258778 -90.1640625 6.44921875 C-89.05804687 5.28326172 -89.05804687 5.28326172 -87.9296875 4.09375 C-64.70545271 -18.56126335 -25.67859479 -18.40144789 0 0 Z " fill="#FC2A05" transform="translate(1637.1640625,669.55078125)"/>
<path d="M0 0 C15.18 0 30.36 0 46 0 C48.475 9.9 48.475 9.9 51 20 C51.93499637 23.34531363 52.87969077 26.67417457 53.875 30 C57.35834082 41.91233582 60.27642627 53.96127036 63.25537109 66.00732422 C65.3583009 74.4590336 67.67339162 82.85135137 70.01953125 91.23828125 C70.38891974 92.56513921 70.7581378 93.89204463 71.12719727 95.21899414 C71.86650868 97.87706648 72.61126657 100.53353188 73.35913086 103.18920898 C73.86972046 105.02140991 73.86972046 105.02140991 74.390625 106.890625 C74.70032227 107.99438477 75.01001953 109.09814453 75.32910156 110.23535156 C76 113 76 113 76 116 C76.66 116 77.32 116 78 116 C78.12761719 115.17371094 78.25523438 114.34742188 78.38671875 113.49609375 C79.06144028 109.64975125 79.90991141 105.86007726 80.8125 102.0625 C80.98918213 101.31597168 81.16586426 100.56944336 81.34790039 99.80029297 C82.93289783 93.1664988 84.67579804 86.57958161 86.46142578 79.99707031 C87.44884004 76.33567019 88.41112842 72.66765492 89.375 69 C89.5824585 68.21125488 89.78991699 67.42250977 90.00366211 66.60986328 C91.6770536 60.24197821 93.3390903 53.87114995 95 47.5 C95.50910688 45.54947716 96.0182214 43.59895631 96.52734375 41.6484375 C97.46085599 38.07129156 98.39039132 34.49315584 99.31640625 30.9140625 C99.73169225 29.31768789 100.14705276 27.72133266 100.5625 26.125 C100.73587891 25.45017578 100.90925781 24.77535156 101.08789062 24.08007812 C103.19982729 15.99067449 105.63726566 8.03329677 108 0 C122.19 0 136.38 0 151 0 C149.87376755 7.88362713 149.87376755 7.88362713 148.94921875 11.56640625 C148.64274414 12.79133789 148.64274414 12.79133789 148.33007812 14.04101562 C148.11802734 14.87310547 147.90597656 15.70519531 147.6875 16.5625 C147.48705078 17.36751953 147.28660156 18.17253906 147.08007812 19.00195312 C145.21918645 26.3821458 143.11501844 33.68927377 141 41 C136.8748158 55.28442077 132.79036562 69.56627103 129.08081055 83.96508789 C126.30410082 94.74039353 123.36366986 105.46537689 120.17797852 116.12719727 C117.67429333 124.50823624 115.42028212 132.93854012 113.23291016 141.4074707 C109.84817724 154.49749592 106.19483689 167.49955736 102.30859375 180.44921875 C100.44239737 186.93912557 98.73996861 193.47511773 97 200 C83.14 200 69.28 200 55 200 C53.68 195.38 52.36 190.76 51 186 C49.68327952 181.52410293 49.68327952 181.52410293 48.36279297 177.04931641 C45.69882676 168.02017457 43.17776841 158.99129713 40.95703125 149.84375 C39.3240372 143.28511266 37.4722758 136.78778194 35.64111328 130.28222656 C34.585343 126.52390951 33.54330633 122.76179211 32.5 119 C32.08340051 117.49998134 31.66673381 115.99998135 31.25 114.5 C28.75 105.5 28.75 105.5 28.12548828 103.25146484 C27.70739534 101.74652608 27.2891 100.24164354 26.87060547 98.73681641 C25.84912095 95.06280567 24.83078805 91.38799244 23.8203125 87.7109375 C21.73002108 80.12128094 19.58307872 72.55249044 17.35839844 65.00097656 C14.70431882 55.99174128 12.17847216 46.98928928 9.9609375 37.86328125 C7.25163191 26.97099171 4.15003067 16.18369176 0.69921875 5.50390625 C0 3 0 3 0 0 Z " fill="#FC2D05" transform="translate(1345,655)"/>
<path d="M0 0 C8.66406014 4.83238613 13.85009619 12.67365128 16.9453125 21.93359375 C19.7174736 33.03869991 20.39497159 43.74121147 20.28149414 55.14404297 C20.25770329 57.6953052 20.26098865 60.24552814 20.26757812 62.796875 C20.24064213 79.26614352 19.10643962 97.43294277 6.9453125 109.93359375 C-0.99237871 116.08935428 -8.20249901 116.83736189 -18.0546875 115.93359375 C-21.11775739 115.04120331 -23.46000832 113.7669234 -26.0546875 111.93359375 C-27.0859375 111.27359375 -28.1171875 110.61359375 -29.1796875 109.93359375 C-36.57225403 103.34675654 -39.23637925 92.27368074 -41.0546875 82.93359375 C-41.22524658 82.063396 -41.39580566 81.19319824 -41.5715332 80.29663086 C-42.14713273 76.29012073 -42.27219702 72.3784101 -42.328125 68.3359375 C-42.34065308 67.51259918 -42.35318115 66.68926086 -42.36608887 65.8409729 C-42.93867697 19.21069228 -42.93867697 19.21069228 -31.0546875 6.93359375 C-22.71827687 -1.51108195 -11.16166458 -3.89659134 0 0 Z " fill="#030302" transform="translate(1774.0546875,700.06640625)"/>
<path d="M0 0 C8.06423548 5.05572379 12.60236258 13.1877601 15.625 21.9375 C17.3329561 29.42623057 17.60357445 36.92455249 17.640625 44.58203125 C17.64632507 45.51746262 17.65202515 46.45289398 17.65789795 47.41667175 C17.66728571 49.38397105 17.67385693 51.35128564 17.67773438 53.31860352 C17.68743987 56.29406699 17.71852313 59.26883861 17.75 62.24414062 C17.83601713 77.70592239 16.67385237 94.58077539 5.4375 106.5 C-1.18834657 111.47716174 -8.41828042 113.3601156 -16.5625 112.5 C-24.20344065 110.88607194 -29.67826101 107.49057128 -34.1875 101 C-39.99980513 91.15658002 -41.72029529 79.91455582 -41.6953125 68.703125 C-41.69626923 67.75491882 -41.69722595 66.80671265 -41.69821167 65.82977295 C-41.69889104 63.82596775 -41.69705372 61.82216033 -41.69287109 59.81835938 C-41.68754322 56.77468829 -41.69281207 53.73116637 -41.69921875 50.6875 C-41.69855746 48.73437468 -41.69727525 46.78124945 -41.6953125 44.828125 C-41.69733673 43.92781555 -41.69936096 43.0275061 -41.70144653 42.09991455 C-41.65244417 28.66700541 -39.72487246 14.75429107 -29.828125 4.74609375 C-21.85233489 -2.32645518 -10.11985347 -4.51101949 0 0 Z " fill="#FB7B10" transform="translate(575.5625,704.5)"/>
<path d="M0 0 C28.89605263 0 28.89605263 0 38.2890625 9.10546875 C48.05985285 19.9247229 49.65432058 33.70584181 49.41162109 47.70361328 C49.37514004 49.86669666 49.37060375 52.02804661 49.37109375 54.19140625 C49.24507104 80.31437901 49.24507104 80.31437901 43.8125 91.5625 C43.50352783 92.22668945 43.19455566 92.89087891 42.8762207 93.57519531 C38.06208338 103.45999593 33.61709198 105.75316321 23 110 C15.41 110 7.82 110 0 110 C0 73.7 0 37.4 0 0 Z " fill="#040303" transform="translate(1073,702)"/>
<path d="M0 0 C5.0176117 -0.0690497 10.03356045 -0.12872743 15.05126953 -0.16479492 C16.75640463 -0.17983738 18.46150132 -0.20027653 20.16650391 -0.22631836 C22.62412012 -0.26290284 25.08122269 -0.27977173 27.5390625 -0.29296875 C28.29555084 -0.30845261 29.05203918 -0.32393646 29.83145142 -0.33988953 C34.62886397 -0.34139872 37.82128623 0.39969508 42 3 C45.82819361 6.82819361 46.31859696 10.15059242 46.5 15.375 C46.28983865 21.13473451 45.64534425 25.46257326 42 30 C34.30109645 35.52867691 25.55650301 34.4437495 16.5 34.25 C8.3325 34.12625 8.3325 34.12625 0 34 C0 22.78 0 11.56 0 0 Z " fill="#F68512" transform="translate(707,705)"/>
</svg>
